<?xml version="1.0" encoding="UTF-8"?>
<svg version="1.1" xmlns="http://www.w3.org/2000/svg" width="500" height="500">
<path d="M0 0 C165 0 330 0 500 0 C500 165 500 330 500 500 C335 500 170 500 0 500 C0 335 0 170 0 0 Z " fill="#272727" transform="translate(0,0)"/>
<path d="M0 0 C0.7523291 0.14453613 1.5046582 0.28907227 2.27978516 0.43798828 C32.73905578 6.51906751 61.62178419 19.80993389 86 39 C86.54720703 39.43006348 87.09441406 39.86012695 87.65820312 40.30322266 C107.87679034 56.38842312 124.42788529 75.43821322 137 98 C137.3707666 98.6487207 137.7415332 99.29744141 138.12353516 99.96582031 C147.06424839 115.65301976 153.65004683 132.47287161 158 150 C158.27457031 151.06476563 158.54914063 152.12953125 158.83203125 153.2265625 C164.6697904 177.78541134 166.15775261 207.36898958 160 232 C137.23 232 114.46 232 91 232 C91 243.22 91 254.44 91 266 C110.47 266 129.94 266 150 266 C146.07821922 285.60890392 133.18994645 304.51442826 121 320 C120.56993652 320.54720703 120.13987305 321.09441406 119.69677734 321.65820312 C104.15679414 341.19146952 85.72549865 357.75892959 63.89355469 369.93945312 C61.97070989 371.01640488 60.06837387 372.12504874 58.1640625 373.234375 C40.51350807 383.27342533 20.75104613 389.55901529 1 394 C0.33178223 394.16226074 -0.33643555 394.32452148 -1.02490234 394.49169922 C-47.26788117 405.50409698 -97.67849844 392.10903598 -138.34619141 370.01806641 C-140 369 -140 369 -142 367 C-142.24609566 365.17654991 -142.24609566 365.17654991 -142.24050903 362.92514038 C-142.24325836 362.07256149 -142.24600769 361.2199826 -142.24884033 360.34156799 C-142.2380545 358.93571693 -142.2380545 358.93571693 -142.22705078 357.50146484 C-142.22734283 356.51606216 -142.22763489 355.53065948 -142.22793579 354.51539612 C-142.22653864 351.24715472 -142.21095927 347.97913924 -142.1953125 344.7109375 C-142.19158374 342.44935226 -142.18873612 340.18776541 -142.18673706 337.92617798 C-142.17908981 331.96504276 -142.15943194 326.00400453 -142.1373291 320.04290771 C-142.11689417 313.96351433 -142.10774038 307.88410531 -142.09765625 301.8046875 C-142.07618709 289.86974898 -142.042038 277.93488255 -142 266 C-140.53993279 265.99120064 -140.53993279 265.99120064 -139.05036926 265.98222351 C-129.8272392 265.92473376 -120.604339 265.85183784 -111.38144398 265.76428509 C-106.64111378 265.71976882 -101.90086583 265.68047266 -97.16040039 265.65356445 C-92.57608195 265.62734287 -87.99208328 265.58681087 -83.40796471 265.53681374 C-81.6687388 265.5202714 -79.92945775 265.5086792 -78.19016457 265.50238609 C-63.18050482 265.44264187 -48.64398582 264.790864 -36.96875 254.1484375 C-28.00952118 244.61976617 -26.5257309 234.30087493 -26.7265625 221.7578125 C-27.06228222 213.23850908 -30.13079807 206.94855594 -35.9375 200.75390625 C-40.89703817 196.53642019 -47.0116462 194.36550631 -53 192 C-50.82406526 189.82406526 -49.11304445 189.10157843 -46.3125 187.875 C-39.50370374 184.51979837 -34.89618951 179.87023333 -32.125 172.75 C-31.75375 171.5125 -31.3825 170.275 -31 169 C-30.81824219 168.39929688 -30.63648438 167.79859375 -30.44921875 167.1796875 C-28.60973635 158.25419899 -29.22412553 148.83964299 -34 141 C-40.67527165 131.74162934 -48.79404584 126.30657379 -60 124 C-63.44758944 123.70465321 -66.88268668 123.68906824 -70.34155273 123.68115234 C-71.37326379 123.67099909 -72.40497484 123.66084583 -73.46794987 123.6503849 C-76.78982785 123.61988013 -80.1116207 123.60263014 -83.43359375 123.5859375 C-85.49158456 123.56899262 -87.54956837 123.55117484 -89.60754395 123.5324707 C-97.21744904 123.46940949 -104.82748639 123.42321888 -112.4375 123.375 C-137.9609375 123.189375 -137.9609375 123.189375 -164 123 C-164 164.91 -164 206.82 -164 250 C-170.6 250 -177.2 250 -184 250 C-184 277.06 -184 304.12 -184 332 C-202.01575039 313.98424961 -214.40018259 292.49565701 -224 269 C-224.27972656 268.3188916 -224.55945313 267.6377832 -224.84765625 266.93603516 C-237.94563458 234.37300569 -241.52287453 194.31941286 -234 160 C-233.83371094 159.1848291 -233.66742188 158.3696582 -233.49609375 157.52978516 C-223.46565616 108.59425216 -195.47983947 64.46014191 -155 35 C-154.43651855 34.58685547 -153.87303711 34.17371094 -153.29248047 33.74804688 C-109.30014479 1.90501411 -53.27220258 -10.28560763 0 0 Z " fill="#FDFDFD" transform="translate(287,53)"/>
<path d="M0 0 C5.46349235 -0.09195219 10.92428911 -0.17155047 16.38793945 -0.21972656 C18.24545398 -0.23981305 20.10290551 -0.26708778 21.96020508 -0.30175781 C24.63378463 -0.35040737 27.30652656 -0.37299809 29.98046875 -0.390625 C30.80773972 -0.41127014 31.63501068 -0.43191528 32.48735046 -0.45318604 C36.52841025 -0.45475043 38.50278957 -0.31467479 42.0012207 1.89941406 C45.80412818 5.89602038 45.3874471 9.67631283 45.35546875 15.00390625 C44.82110735 19.50780945 43.39742967 21.07663028 40 24 C36.1784462 25.27385127 32.5931553 25.12353188 28.61328125 25.09765625 C27.79627243 25.0962413 26.97926361 25.09482635 26.13749695 25.09336853 C23.52912732 25.08777294 20.92084366 25.07522129 18.3125 25.0625 C16.54362103 25.05748443 14.77474072 25.05292162 13.00585938 25.04882812 C8.67051318 25.03865603 4.33535278 25.01907979 0 25 C0 16.75 0 8.5 0 0 Z " fill="#FBFBFB" transform="translate(169,261)"/>
<path d="M0 0 C4.75111878 -0.06900495 9.50048771 -0.12869507 14.25170898 -0.16479492 C15.86667789 -0.17984876 17.48160613 -0.20029648 19.09643555 -0.22631836 C21.42246555 -0.26285286 23.74795341 -0.27976015 26.07421875 -0.29296875 C27.15107185 -0.31619453 27.15107185 -0.31619453 28.24967957 -0.33988953 C32.70376801 -0.34137302 35.43730222 0.30814737 39 3 C41.78636031 5.9262867 42.41209577 7.92497395 42.375 11.9375 C42.247191 16.06999103 41.73955438 18.75312074 39 22 C35.21157527 24.52561648 32.21466671 24.25391573 27.83203125 24.1953125 C26.63981209 24.19106766 26.63981209 24.19106766 25.42350769 24.18673706 C22.88635162 24.17554705 20.34954928 24.15044491 17.8125 24.125 C16.09180198 24.11496866 14.37109841 24.10584308 12.65039062 24.09765625 C8.43334801 24.07731355 4.2170697 24.03816353 0 24 C0 16.08 0 8.16 0 0 Z " fill="#FDFDFD" transform="translate(169,207)"/>
<path d="M0 0 C9.26315789 0 9.26315789 0 12 2 C14.46480098 5.69720147 14.7842673 8.71155966 14 13 C12.0625 16 12.0625 16 9 18 C6.03 18 3.06 18 0 18 C0 12.06 0 6.12 0 0 Z " fill="#2E2E2E" transform="translate(274,336)"/>
<path d="M0 0 C8 0 8 0 11 2 C10.125 6.75 10.125 6.75 9 9 C9.99 9.33 10.98 9.66 12 10 C12.1875 12.875 12.1875 12.875 12 16 C9 18 9 18 0 18 C0 12.06 0 6.12 0 0 Z " fill="#474747" transform="translate(180,336)"/>
<path d="M0 0 C1.588125 -0.061875 3.17625 -0.12375 4.8125 -0.1875 C6.15248047 -0.23970703 6.15248047 -0.23970703 7.51953125 -0.29296875 C10 0 10 0 11.8359375 1.3203125 C13 3 13 3 12.8125 6.0625 C12 9 12 9 10 11 C12.475 14.465 12.475 14.465 15 18 C12.8125 18.375 12.8125 18.375 10 18 C8.00977164 16.16038352 6.61010101 14.20813852 5 12 C4.67 13.98 4.34 15.96 4 18 C2.68 18 1.36 18 0 18 C0 12.06 0 6.12 0 0 Z " fill="#353535" transform="translate(214,336)"/>
<path d="M0 0 C21.12 0 42.24 0 64 0 C64 0.99 64 1.98 64 3 C42.88 3 21.76 3 0 3 C0 2.01 0 1.02 0 0 Z " fill="#272727" transform="translate(103,156)"/>
<path d="M0 0 C2.97 0 5.94 0 9 0 C9.99 0.99 10.98 1.98 12 3 C11.6875 5.9375 11.6875 5.9375 11 9 C11 13.27709699 11.70620251 14.55930376 14 18 C11.75 18.3125 11.75 18.3125 9 18 C6.6875 15.5 6.6875 15.5 5 13 C4.67 14.65 4.34 16.3 4 18 C2.68 18 1.36 18 0 18 C0 12.06 0 6.12 0 0 Z " fill="#404040" transform="translate(232,336)"/>
<path d="M0 0 C2.29296875 0.03515625 2.29296875 0.03515625 5 1 C6.38332724 3.54160123 7.36887608 5.74107597 8.3125 8.4375 C8.57611328 9.13166016 8.83972656 9.82582031 9.11132812 10.54101562 C11 15.60854302 11 15.60854302 11 18 C9.35 17.67 7.7 17.34 6 17 C6 16.01 6 15.02 6 14 C3.69 14.33 1.38 14.66 -1 15 C-1.33 15.99 -1.66 16.98 -2 18 C-3.65 18 -5.3 18 -7 18 C-5.06375702 11.79522136 -2.74390859 5.89174281 0 0 Z " fill="#3E3E3E" transform="translate(201,336)"/>
<path d="M0 0 C1.65 0 3.3 0 5 0 C8 6.625 8 6.625 8 10 C8.66 10 9.32 10 10 10 C10.99 6.7 11.98 3.4 13 0 C14.65 0 16.3 0 18 0 C16.06375702 6.20477864 13.74390859 12.10825719 11 18 C9.68 18 8.36 18 7 18 C5.83121737 15.18836219 4.66488052 12.37575392 3.5 9.5625 C2.99919922 8.35883789 2.99919922 8.35883789 2.48828125 7.13085938 C2.01455078 5.98520508 2.01455078 5.98520508 1.53125 4.81640625 C1.23798828 4.10943604 0.94472656 3.40246582 0.64257812 2.67407227 C0 1 0 1 0 0 Z " fill="#343434" transform="translate(304,336)"/>
<path d="M0 0 C3.3 0 6.6 0 10 0 C10 0.99 10 1.98 10 3 C8.02 3 6.04 3 4 3 C4 4.32 4 5.64 4 7 C5.98 7 7.96 7 10 7 C10 8.32 10 9.64 10 11 C8.02 11 6.04 11 4 11 C4 11.99 4 12.98 4 14 C5.98 14 7.96 14 10 14 C10 15.32 10 16.64 10 18 C6.7 18 3.4 18 0 18 C0 12.06 0 6.12 0 0 Z " fill="#333333" transform="translate(292,336)"/>
<path d="M0 0 C2.25 -0.25 2.25 -0.25 5 0 C7.3125 2 7.3125 2 9 4 C9.391875 3.34 9.78375 2.68 10.1875 2 C10.785625 1.34 11.38375 0.68 12 0 C14.61328125 -0.125 14.61328125 -0.125 17 0 C16.65066406 0.54527344 16.30132812 1.09054687 15.94140625 1.65234375 C12.56295447 7.25119443 11.31092785 11.47051512 11 18 C9.35 18 7.7 18 6 18 C5.98582031 17.3709375 5.97164062 16.741875 5.95703125 16.09375 C5.58839741 9.47826706 3.99062213 5.27174436 0 0 Z " fill="#3B3B3B" transform="translate(247,336)"/>
<path d="M0 0 C2.475 0.495 2.475 0.495 5 1 C5.6875 3.8125 5.6875 3.8125 6 7 C4.75 8.875 4.75 8.875 3 10 C2.01 10 1.02 10 0 10 C0 6.7 0 3.4 0 0 Z " fill="#F4F4F4" transform="translate(278,340)"/>
<path d="M0 0 C1.67542976 0.28604898 3.34385343 0.61781233 5 1 C5 2.98 5 4.96 5 7 C2.625 7.625 2.625 7.625 0 8 C-0.66 7.34 -1.32 6.68 -2 6 C-1.44444444 1.44444444 -1.44444444 1.44444444 0 0 Z " fill="#B0B0B0" transform="translate(220,365)"/>
<path d="M0 0 C2.97 0.495 2.97 0.495 6 1 C5.67 2.32 5.34 3.64 5 5 C4.01 5 3.02 5 2 5 C2 5.99 2 6.98 2 8 C1.34 8 0.68 8 0 8 C0 5.36 0 2.72 0 0 Z " fill="#9E9E9E" transform="translate(249,365)"/>
<path d="M0 0 C0.99 0.33 1.98 0.66 3 1 C4.1875 4.5625 4.1875 4.5625 5 8 C3.33333333 8 1.66666667 8 0 8 C0 5.36 0 2.72 0 0 Z " fill="#8D8D8D" transform="translate(233,365)"/>
<path d="M0 0 C0.66 0 1.32 0 2 0 C4.125 4.625 4.125 4.625 3 8 C3 7.34 3 6.68 3 6 C1.68 6 0.36 6 -1 6 C-0.67 4.02 -0.34 2.04 0 0 Z " fill="#818181" transform="translate(264,365)"/>
<path d="M0 0 C1.32 0.33 2.64 0.66 4 1 C3.67 2.32 3.34 3.64 3 5 C2.01 5 1.02 5 0 5 C0 3.35 0 1.7 0 0 Z " fill="#D7D7D7" transform="translate(218,339)"/>
</svg>
